<!-- icon666.com - MILLIONS vector ICONS FREE --><svg id="svg5529" viewBox="0 0 16 16" xmlns="http://www.w3.org/2000/svg" xmlns:svg="http://www.w3.org/2000/svg"><g id="layer1" transform="translate(0 -1036.362)"><path id="path7829" d="m4.984375 3a.99868031.99868031 0 0 0 -.9824219 1.0136719v7.9667971a.99868031.99868031 0 0 0 .8144531.99414.99868031.99868031 0 0 0 .0039063 0 .99868031.99868031 0 0 0 .0957031.013672.99868031.99868031 0 0 0 .0039063 0 .99868031.99868031 0 0 0 .0078125 0 .99868031.99868031 0 0 0 .4785156-.074219.99868031.99868031 0 0 0 .0898438-.041015.99868031.99868031 0 0 0 .1640624-.115235.99868031.99868031 0 0 0 .0742188-.066406.99868031.99868031 0 0 0 .0742188-.085937l2.1933593-2.9296878 2.1894529 2.9238278a.99896591.99896591 0 0 0 1.300782.263672.99896591.99896591 0 0 0 .15625-.111328.99896591.99896591 0 0 0 .005859-.003906.99868031.99868031 0 0 0 .005859-.005859.99896591.99896591 0 0 0 .054688-.052735.99896591.99896591 0 0 0 .011718-.011719.99868031.99868031 0 0 0 .029297-.033203.99896591.99896591 0 0 0 .003907-.003906.99868031.99868031 0 0 0 .05664-.076172.99868031.99868031 0 0 0 .181641-.583984v-7.9667971a.99868031.99868031 0 0 0 -1.013672-1.0136719.99868031.99868031 0 0 0 -.982422 1.0136719v5l-1.2031249-1.6054688a.99868031.99868031 0 0 0 -.8652343-.4101562.99868031.99868031 0 0 0 -.8359376.5546875l-1.0996093 1.4667968v-5.0058593a.99868031.99868031 0 0 0 -1.0136719-1.0136719z" fill-rule="evenodd" transform="translate(0 1036.362)" text-indent="0" text-align="start" text-decoration-line="none" text-decoration-style="solid" text-decoration-color="rgb(0,0,0)" text-transform="none" block-progression="tb" white-space="normal" isolation="auto" mix-blend-mode="normal" solid-color="rgb(0,0,0)" solid-opacity="1"></path></g></svg>